<?xml version="1.0" encoding="UTF-8" standalone="no"?>
<svg
   xmlns:dc="http://purl.org/dc/elements/1.1/"
   xmlns:cc="http://creativecommons.org/ns#"
   xmlns:rdf="http://www.w3.org/1999/02/22-rdf-syntax-ns#"
   xmlns:svg="http://www.w3.org/2000/svg"
   xmlns="http://www.w3.org/2000/svg"
   xmlns:sodipodi="http://sodipodi.sourceforge.net/DTD/sodipodi-0.dtd"
   xmlns:inkscape="http://www.inkscape.org/namespaces/inkscape"
   inkscape:version="1.0beta2 (2b71d25, 2019-12-03)"
   sodipodi:docname="habita-logo-umbrella-white.svg"
   version="1.1"
   id="svg2"
   xml:space="preserve"
   width="330"
   height="188.74413"
   viewBox="0 0 330 188.74413"><sodipodi:namedview
     inkscape:current-layer="svg2"
     inkscape:window-maximized="0"
     inkscape:window-y="25"
     inkscape:window-x="0"
     inkscape:cy="95.996078"
     inkscape:cx="209.17323"
     inkscape:zoom="3.0787879"
     showgrid="false"
     id="namedview849"
     inkscape:window-height="1137"
     inkscape:window-width="2280"
     inkscape:pageshadow="2"
     inkscape:pageopacity="0"
     guidetolerance="10"
     gridtolerance="10"
     objecttolerance="10"
     borderopacity="1"
     inkscape:document-rotation="0"
     bordercolor="#666666"
     pagecolor="#ffffff" /><metadata
     id="metadata8"><rdf:RDF><cc:Work
         rdf:about=""><dc:format>image/svg+xml</dc:format><dc:type
           rdf:resource="http://purl.org/dc/dcmitype/StillImage" /><dc:title></dc:title></cc:Work></rdf:RDF></metadata><defs
     id="defs6" /><g
     id="g10"
     transform="matrix(1.3333333,0,0,-1.3333333,0,188.74412)"><g
       id="g12"><path
         d="m 49.125,38.171 v 16.352 c 0,13.648 -9.227,16.348 -23.852,16.348 -4.5,0 -8.921,-0.149 -11.921,-1.649 V 85.796 H 1.426 V 38.171 h 11.926 v 16.352 c 0,4.422 3.597,6.223 11.921,6.223 8.329,0 11.926,-1.801 11.926,-6.223 V 38.171 Z"
         style="fill:#ffffff;fill-opacity:1;fill-rule:nonzero;stroke:none"
         id="path14" /><path
         d="m 101.023,48.898 v 6.824 c 0,13.649 -9.222,15.149 -23.847,15.149 H 61.648 v -8.926 h 15.528 c 6,0 11.023,-0.149 11.023,-2.922 h -15 c -16.051,0 -19.949,-0.602 -19.949,-10.125 0,-9.527 3.898,-10.727 19.949,-10.727 h 7.875 c 16.125,0 19.949,1.2 19.949,10.727 m -11.921,0 c 0,-1.801 -1.579,-1.801 -6.301,-1.801 h -11.25 c -4.801,0 -6.301,0 -6.301,1.801 0,2.324 0.602,2.324 6.301,2.324 h 17.551 z"
         style="fill:#ffffff;fill-opacity:1;fill-rule:evenodd;stroke:none"
         id="path16" /><path
         d="m 153.227,54.523 c 0,13.648 -9.227,16.348 -23.852,16.348 -4.5,0 -9.148,-0.149 -11.926,-1.649 V 85.796 H 105.523 V 54.523 c 0,-13.652 9.227,-16.352 23.852,-16.352 14.625,0 23.852,2.7 23.852,16.352 m -11.926,0 c 0,-4.426 -3.602,-6.227 -11.926,-6.227 -8.324,0 -11.926,1.801 -11.926,6.227 0,4.422 3.602,6.223 11.926,6.223 8.398,0 11.926,-1.801 11.926,-6.223"
         style="fill:#ffffff;fill-opacity:1;fill-rule:evenodd;stroke:none"
         id="path18" /><path
         d="m 169.801,79.421 c 0,3.524 -2.852,6.375 -6.375,6.375 -3.528,0 -6.375,-2.851 -6.375,-6.375 0,-3.523 2.847,-6.375 6.375,-6.375 3.449,0 6.375,2.852 6.375,6.375 m -0.449,-8.55 h -11.926 v -32.7 h 11.926 z"
         style="fill:#ffffff;fill-opacity:1;fill-rule:evenodd;stroke:none"
         id="path20" /><path
         d="m 196.199,38.171 v 10.125 c -6.523,0 -8.926,1.801 -8.926,6.227 v 7.273 h 7.051 v 9.075 h -7.051 v 9.527 H 175.352 V 54.523 c -0.079,-13.652 6.222,-16.352 20.847,-16.352"
         style="fill:#ffffff;fill-opacity:1;fill-rule:nonzero;stroke:none"
         id="path22" /><path
         d="m 247.5,48.898 v 6.824 c 0,13.649 -9.227,15.149 -23.852,15.149 H 210 v -8.926 h 13.648 c 6,0 11.028,-0.149 11.028,-2.922 h -15 c -16.051,0 -19.949,-0.602 -19.949,-10.125 0,-9.527 3.898,-10.727 19.949,-10.727 h 7.875 c 16.051,0 19.949,1.2 19.949,10.727 m -11.926,0 c 0,-1.801 -1.574,-1.801 -6.301,-1.801 h -11.25 c -4.796,0 -6.296,0 -6.296,1.801 0,2.324 0.597,2.324 6.296,2.324 h 17.551 z"
         style="fill:#ffffff;fill-opacity:1;fill-rule:evenodd;stroke:none"
         id="path24" /><path
         d="m 243.375,102.523 c 0,0 -1.426,0.148 -4.199,0.449 -2.778,0.223 -6.824,0.524 -12.074,0.598 -5.25,0.078 -11.704,-0.149 -19.051,-0.973 -7.352,-0.824 -15.75,-2.324 -24.528,-5.25 -1.125,-0.375 -2.171,-0.75 -3.296,-1.199 -0.528,-0.227 -1.125,-0.453 -1.653,-0.676 l -0.898,-0.375 c -0.449,-0.152 -0.903,-0.301 -1.278,-0.301 -0.824,-0.074 -1.722,-0.074 -2.625,0.227 -0.597,0.223 -1.199,0.449 -1.796,0.672 -1.125,0.375 -2.329,0.828 -3.528,1.125 -4.801,1.426 -9.972,2.551 -15.375,3.301 -10.722,1.574 -22.5,1.949 -34.648,0.902 -6.074,-0.527 -12.301,-1.426 -18.449,-2.926 C 96.898,97.347 93.824,96.523 90.75,95.472 90,95.246 89.25,94.945 88.5,94.648 l -1.125,-0.453 c -0.75,-0.297 -1.426,-0.449 -2.176,-0.449 -0.676,0 -1.426,0 -2.176,0.226 -0.148,0.074 -0.375,0.074 -0.523,0.149 l -0.375,0.152 -0.602,0.223 c -0.75,0.3 -1.5,0.527 -2.324,0.824 -6.222,2.027 -12.824,3.453 -19.574,4.351 -6.75,0.899 -13.727,1.352 -20.773,1.274 -7.051,-0.074 -13.954,-0.524 -20.704,-1.574 -3.375,-0.524 -6.671,-1.125 -9.972,-1.875 L 7.426,97.347 C 7.125,97.273 6.824,97.273 6.602,97.195 6,97.121 5.477,97.121 4.875,97.121 c -0.301,0 -0.602,0 -0.977,0.074 -0.222,0 -0.375,0.078 -0.523,0.078 C 3.148,97.347 3,97.347 2.699,97.421 2.551,97.496 2.398,97.496 2.25,97.57 2.176,97.57 2.102,97.648 2.023,97.722 1.949,97.796 1.801,97.796 1.727,97.871 1.648,97.945 1.574,98.023 1.426,98.023 1.352,98.097 1.199,98.246 1.051,98.32 0.898,98.472 0.824,98.546 0.676,98.695 0.602,98.847 0.449,98.996 0.375,99.222 0.148,99.671 0,100.195 0,100.57 c 0,0.226 0,0.453 0,0.676 0,0.226 0.074,0.449 0.148,0.527 0.079,0.297 0.227,0.523 0.375,0.75 0.079,0.148 0.079,0.148 0.153,0.223 l 0.148,0.226 0.153,0.223 c 0.074,0.078 0.148,0.152 0.148,0.152 l 0.824,0.824 0.977,0.899 c 0.597,0.601 1.347,1.203 1.949,1.801 5.324,4.652 11.023,8.402 16.875,11.699 5.773,3.301 11.699,5.926 17.625,8.25 11.773,4.652 23.324,7.726 34.273,9.902 5.477,1.125 10.801,1.949 15.903,2.625 5.097,0.676 10.051,1.125 14.773,1.5 18.903,1.348 34.199,0.524 44.699,-0.375 5.25,-0.449 9.301,-0.976 12.079,-1.351 2.773,-0.375 4.199,-0.598 4.199,-0.598 0,0 -1.426,0.148 -4.199,0.297 -2.778,0.226 -6.829,0.453 -12.079,0.601 -10.5,0.301 -25.722,0.375 -44.324,-1.8 -4.648,-0.524 -9.523,-1.2 -14.551,-2.098 -5.023,-0.828 -10.199,-1.875 -15.523,-3.152 -10.648,-2.473 -21.898,-5.848 -33.227,-10.649 -5.625,-2.402 -11.324,-5.101 -16.796,-8.324 -5.477,-3.227 -10.875,-6.902 -15.676,-11.25 -0.602,-0.527 -1.199,-1.051 -1.801,-1.652 L 6.227,99.671 5.773,99.222 5.551,98.996 5.477,98.921 c 0.148,-0.226 -1.579,1.575 -0.977,0.899 -0.074,0.078 -0.148,0.152 -0.227,0.226 -0.148,0.149 -0.375,0.227 -0.449,0.301 -0.074,0.074 -0.222,0.149 -0.301,0.149 -0.148,0.074 -0.222,0 -0.148,0.074 0,0 0.148,0.078 0.148,0.152 0,0.074 0,0.074 0.079,0.149 0.074,0.074 0.074,0.152 0.148,0.152 0.074,0.074 0.074,0.148 0.074,0.223 0,0.074 0.074,0.152 0.074,0.226 0.079,0.149 0.153,0.375 0.227,0.524 0,0.152 0.148,0.375 0.148,0.601 l 0.079,0.301 c 0,0.074 0,0 0,0 0,0 0.074,0 0.074,0 0.074,0 0.148,0 0.301,0 0.222,0 0.523,0 0.824,0.074 0.148,0 0.301,0.074 0.449,0.074 l 0.523,0.149 c 3.454,0.828 6.903,1.578 10.5,2.101 7.051,1.125 14.329,1.649 21.602,1.649 7.352,0 14.551,-0.449 21.676,-1.422 7.051,-1.051 14.023,-2.551 20.625,-4.801 0.824,-0.301 1.648,-0.601 2.472,-0.902 l 0.903,-0.297 c 0.074,0 0.222,-0.078 0.375,-0.078 0.148,0 0.222,0 0.301,0.078 l 1.199,0.449 c 0.824,0.301 1.648,0.598 2.472,0.824 3.301,1.051 6.528,1.95 9.829,2.625 6.523,1.426 12.972,2.25 19.273,2.625 12.602,0.825 24.676,0.075 35.773,-1.949 5.551,-0.976 10.801,-2.324 15.75,-4.051 1.278,-0.449 2.477,-0.898 3.676,-1.351 0.602,-0.223 1.125,-0.449 1.727,-0.672 0.301,-0.152 0.676,-0.152 1.051,-0.152 0.148,0 0.375,0.074 0.523,0.074 l 0.824,0.301 c 0.602,0.226 1.199,0.449 1.727,0.601 1.199,0.375 2.324,0.75 3.449,1.051 9.227,2.625 17.773,3.672 25.273,4.199 7.5,0.449 14.028,0.375 19.278,0 5.25,-0.375 9.301,-0.902 12.074,-1.277 3.074,0 4.5,-0.297 4.5,-0.297 z"
         style="fill:#ffffff;fill-opacity:1;fill-rule:nonzero;stroke:none"
         id="path26" /><g
         id="g28"
         transform="matrix(1,0,0,-1,0,141.55809)"><path
           d="M 150.074,128.812 C 150,128.438 150,128.285 150,128.285 c 0,0 -0.074,0.227 -0.148,0.527 -0.079,0.376 -0.227,0.899 -0.528,1.5 -0.523,1.2 -1.574,2.848 -3.375,4.126 -0.898,0.597 -1.949,1.124 -3.074,1.347 -0.301,0.078 -0.602,0.153 -0.898,0.153 -0.301,0.074 -0.602,0.074 -0.903,0.074 -0.301,0 -0.597,0 -0.898,0 -0.375,0 -0.75,-0.074 -1.199,-0.074 -0.227,0 -0.454,0 -0.602,-0.075 l -0.449,-0.078 c -0.301,0 -0.602,-0.148 -0.903,-0.223 -0.597,-0.226 -1.199,-0.449 -1.796,-0.75 -0.301,-0.152 -0.528,-0.374 -0.829,-0.527 -0.222,-0.223 -0.523,-0.375 -0.75,-0.672 -0.523,-0.453 -0.898,-0.976 -1.273,-1.578 -0.75,-1.125 -0.977,-2.625 -1.125,-5.097 0,-4.051 0,-8.102 0,-12.153 0,0 -0.074,0 -0.074,0 h -4.574 c -0.301,0 -0.528,0 -0.829,0 0,4.203 0,8.403 0,12.602 0,0.148 0,0.375 0.079,0.523 0,0.152 0,0.301 0,0.453 -0.079,2.25 0.523,4.649 1.875,6.672 0.671,1.051 1.421,1.953 2.324,2.703 0.449,0.375 0.898,0.75 1.347,1.047 0.528,0.301 0.977,0.602 1.5,0.828 1.051,0.524 2.102,0.75 3.153,0.973 0.523,0.074 1.051,0.152 1.574,0.152 0.227,0 0.523,0 0.75,0 0.227,0 0.449,0 0.602,-0.078 0.449,0 0.75,-0.074 1.273,-0.074 0.449,-0.074 0.977,-0.074 1.426,-0.223 0.449,-0.078 0.898,-0.226 1.347,-0.375 0.454,-0.152 0.829,-0.3 1.204,-0.527 1.574,-0.75 2.773,-1.801 3.671,-2.926 1.801,-2.25 2.25,-4.5 2.25,-5.922 0.079,-0.828 0,-1.425 -0.074,-1.801 z"
           style="fill:#ffffff;fill-opacity:1;fill-rule:nonzero;stroke:#ffffff;stroke-width:1.62742496;stroke-linecap:butt;stroke-linejoin:miter;stroke-miterlimit:10;stroke-dasharray:none;stroke-opacity:1"
           id="path30" /></g><path
         d="m 77.324,99.972 c 0,0 2.625,6.375 18.153,18.223 15.523,11.851 24.148,14.777 24.148,14.777 0,0 -22.352,-13.875 -33.977,-32.101 -4.199,-6.524 -8.324,-0.899 -8.324,-0.899 z"
         style="fill:#ffffff;fill-opacity:1;fill-rule:nonzero;stroke:none"
         id="path32" /><path
         d="m 181.5,99.972 c 0,0 -2.625,6.375 -18.148,18.223 -15.528,11.851 -24.153,14.777 -24.153,14.777 0,0 22.352,-13.875 33.977,-32.101 4.199,-6.524 8.324,-0.899 8.324,-0.899 z"
         style="fill:#ffffff;fill-opacity:1;fill-rule:nonzero;stroke:none"
         id="path34" /></g></g></svg>
