<svg fill="none" height="28" viewBox="0 0 233 28" width="233" xmlns="http://www.w3.org/2000/svg" title="Kiinteistömaailma.fi" class="sc-fcdeBU ihjORE"><g fill="#006450"><path d="m74.8725 15.8038 4.715 5.3263h3.0997l-6.2867-7.1162 6.112-6.85423h-2.8814l-6.7232 7.42173v-7.42173h-2.2702v13.97043h2.2702v-3.2743h.0436l1.8773-2.0956z"></path><path d="m85.5252 7.46533c-.8296 0-1.3973.56766-1.3973 1.3973 0 .82965.5677 1.39727 1.3973 1.39727.8297 0 1.3973-.56762 1.3973-1.39727 0-.82964-.6113-1.3973-1.3973-1.3973z"></path><path d="m86.5728 11.832h-2.1392v9.2991h2.1392z"></path><path d="m90.5457 7.46533c-.8296 0-1.3973.56766-1.3973 1.3973 0 .82965.5677 1.39727 1.3973 1.39727.8297 0 1.3973-.56762 1.3973-1.39727 0-.82964-.6113-1.3973-1.3973-1.3973z"></path><path d="m91.5933 11.832h-2.1392v9.2991h2.1392z"></path><path d="m99.6269 11.5693c-1.3971 0-2.4448.5239-3.0124 1.528v-1.3097h-2.1829v9.2991h2.1829v-5.0643c0-1.6153.7858-2.5758 2.2265-2.5758 1.528 0 2.052.8732 2.052 2.8377v4.846h2.183v-5.8501c-.044-2.4448-1.223-3.7109-3.4491-3.7109z"></path><path d="m108.533 17.463v-3.8419h2.139v-1.8336h-2.139v-2.79409h-2.183v2.79409h-1.572v1.8336h1.572v4.3221c0 3.1433 1.965 3.2743 3.012 3.2743.655 0 1.266-.0437 1.616-.131v-1.8772c-.219.0436-.742.0873-1.092.0873-.873 0-1.353-.2183-1.353-1.8336z"></path><path d="m114.426 15.5422c0-1.3098.917-2.2266 2.489-2.2266 1.484 0 2.314.7859 2.357 2.2266zm2.532-3.9729c-2.837 0-4.671 1.921-4.671 4.8897 0 3.0123 1.834 4.8896 4.759 4.8896 2.226 0 3.973-1.2224 4.278-2.9687h-2.183c-.349.6985-1.004 1.0478-2.095 1.0478-1.572 0-2.532-.7859-2.576-2.2702h6.898c.044-.5239.044-.8295.044-1.1788 0-2.6194-1.79-4.4094-4.454-4.4094z"></path><path d="m124.729 7.46533c-.829 0-1.397.56766-1.397 1.3973 0 .82965.568 1.39727 1.397 1.39727.83 0 1.398-.56762 1.398-1.39727 0-.82964-.568-1.3973-1.398-1.3973z"></path><path d="m125.821 11.832h-2.139v9.2991h2.139z"></path><path d="m133.417 15.8041-1.877-.5239c-.873-.2183-1.179-.5675-1.179-1.0914 0-.5676.568-.9605 1.354-.9605 1.004 0 1.615.4803 1.615 1.2224h2.139c0-1.7899-1.397-2.8814-3.667-2.8814-2.096 0-3.58 1.1788-3.58 2.7505 0 1.3097.742 2.2701 2.052 2.6194l1.877.4802c1.004.262 1.222.5676 1.222 1.0915 0 .6548-.523 1.0914-1.353 1.0914-1.135 0-1.877-.5675-1.877-1.3534h-2.183c0 1.79 1.659 3.0997 3.973 3.0997 2.27 0 3.667-1.0914 3.667-2.8814 0-1.3097-.873-2.2702-2.183-2.6631z"></path><path d="m140.882 17.463v-3.8419h2.14v-1.8336h-2.14v-2.79409h-2.182v2.79409h-1.572v1.8336h1.572v4.3221c0 3.1433 1.964 3.2743 3.012 3.2743.655 0 1.266-.0437 1.615-.131v-1.8772c-.218.0436-.742.0873-1.091.0873-.873 0-1.354-.2183-1.354-1.8336z"></path><path d="m147.082 10.2599c.83 0 1.397-.56762 1.397-1.39727 0-.82964-.567-1.3973-1.397-1.3973s-1.397.56766-1.397 1.3973c0 .82965.611 1.39727 1.397 1.39727z"></path><path d="m151.928 10.2599c.829 0 1.397-.56762 1.397-1.39727 0-.82964-.568-1.3973-1.397-1.3973-.83 0-1.398.56766-1.398 1.3973 0 .82965.612 1.39727 1.398 1.39727z"></path><path d="m149.526 19.4284c-1.746 0-2.75-1.2661-2.75-2.9687s.96-2.9687 2.75-2.9687c1.747 0 2.751 1.2661 2.751 2.9687-.044 1.7026-1.004 2.9687-2.751 2.9687zm0-7.8583c-3.056 0-4.889 2.1392-4.889 4.8896s1.833 4.8896 4.889 4.8896 4.89-2.1392 4.89-4.8896c0-2.7068-1.834-4.8896-4.89-4.8896z"></path><path d="m167.208 11.5693c-1.31 0-2.401.6986-2.838 1.659-.393-.9168-1.222-1.659-2.925-1.659-1.222 0-2.183.6986-2.576 1.528v-1.3097h-2.182v9.2991h2.182v-4.8897c0-2.2265.917-2.7504 2.009-2.7504 1.135 0 1.702.6549 1.702 2.1829v5.5008h2.183v-4.9333c0-2.2265.873-2.7504 1.965-2.7504 1.135 0 1.746.6985 1.746 2.2265v5.4572h2.183v-5.8937c-.131-1.7463-.655-3.6673-3.449-3.6673z"></path><path d="m177.599 19.4275c-1.703 0-2.707-1.2661-2.707-2.9687 0-1.7027 1.004-2.9687 2.707-2.9687 1.877 0 2.75 1.3533 2.75 2.9687 0 1.6153-.873 2.9687-2.75 2.9687zm2.707-6.3304c-.568-.9168-1.703-1.4843-2.925-1.4843-2.882 0-4.628 2.1392-4.628 4.8896 0 2.7505 1.572 4.8897 4.584 4.8897 1.135 0 2.401-.5676 3.012-1.4844v1.2661h2.14v-9.3427h-2.183z"></path><path d="m189.604 19.4275c-1.702 0-2.706-1.2661-2.706-2.9687 0-1.7027 1.004-2.9687 2.706-2.9687 1.878 0 2.751 1.3533 2.751 2.9687 0 1.6153-.917 2.9687-2.751 2.9687zm2.664-6.3304c-.568-.9168-1.703-1.4843-2.925-1.4843-2.882 0-4.628 2.1392-4.628 4.8896 0 2.7505 1.572 4.8897 4.584 4.8897 1.135 0 2.401-.5676 3.012-1.4844v1.2661h2.139v-9.3427h-2.139v1.266z"></path><path d="m198.337 7.46533c-.83 0-1.398.56766-1.398 1.3973 0 .82965.568 1.39727 1.398 1.39727.829 0 1.397-.56762 1.397-1.39727 0-.82964-.611-1.3973-1.397-1.3973z"></path><path d="m199.384 11.832h-2.139v9.2991h2.139z"></path><path d="m204.361 7.15967h-2.183v13.97043h2.183z"></path><path d="m217.72 11.5693c-1.31 0-2.401.6986-2.838 1.659-.393-.9168-1.222-1.659-2.925-1.659-1.223 0-2.183.6986-2.576 1.528v-1.3097h-2.183v9.2991h2.183v-4.8897c0-2.2265.917-2.7504 2.008-2.7504 1.135 0 1.703.6549 1.703 2.1829v5.5008h2.183v-4.9333c0-2.2265.873-2.7504 1.964-2.7504 1.136 0 1.747.6985 1.747 2.2265v5.4572h2.183v-5.8937c-.088-1.7463-.655-3.6673-3.449-3.6673z"></path><path d="m228.154 19.4275c-1.702 0-2.706-1.2661-2.706-2.9687 0-1.7027 1.004-2.9687 2.706-2.9687 1.878 0 2.751 1.3533 2.751 2.9687 0 1.6153-.917 2.9687-2.751 2.9687zm2.663-7.5964v1.266c-.567-.9604-1.702-1.4843-2.925-1.4843-2.881 0-4.627 2.1392-4.627 4.8896 0 2.7505 1.571 4.8897 4.584 4.8897 1.135 0 2.401-.5676 3.012-1.4844v1.2661h2.139v-9.3427z"></path><path d="m0 0v18.8164l5.50084-6.1121v-12.7043z" class="km-part"></path><path d="m8.46973 9.38636 3.71087 4.14744 12.1805-13.5338h-7.4218z" class="km-part"></path><path d="m40.1652 16.8954-15.2365-16.8954v27.024h5.5445v-12.6607l9.692 10.7834 9.7356-10.7834v12.6607h5.5008v-27.024z" class="km-part"></path></g><path d="m8.46955 9.38647-8.46955 9.43003v8.2076l8.46955-9.3864 8.46955 9.3864h7.4218z" fill="#23d278" class="km-part"></path></svg>