<?xml version="1.0" encoding="UTF-8"?> <svg xmlns="http://www.w3.org/2000/svg" height="92" viewBox="0 0 676 92" width="676"><path d="m415.685966 23.4095926v10.3448148l.093122.186c.857647-1.1676667 1.811864-2.3709259 2.856905-3.604037 1.043891-1.2296667 2.214245-2.356 3.506463-3.370963 1.289918-1.014963 2.691354-1.8622963 4.198558-2.542 1.506054-.6751111 3.148918-1.0138148 4.93319-1.0138148 2.891395 0 5.396503.5855555 7.518776 1.7532222 2.119972 1.1711111 3.872054 2.7130741 5.258544 4.6224445 1.383041 1.9093703 2.413136 4.0644444 3.091435 6.4663703.674851 2.4007778 1.014 4.8371482 1.014 7.2976297 0 3.449037-.600122 6.6523703-1.799218 9.61-1.200244 2.9564814-2.907489 5.4984814-5.119435 7.6214074-2.216544 2.1252222-4.921694 3.7865926-8.118898 4.9898518-3.197204 1.200963-6.795639 1.7991482-10.791857 1.7991482-1.109422 0-2.200449-.0298519-3.27768-.0907037-1.072633-.0597037-2.19815-.2147037-3.363905-.4604074 0 .8622592.013796 2.1252222.044837 3.7865925.028741 1.6625186.059782 3.4191852.093122 5.2654075.028742 1.8508148.047136 6.2332963.047136 8.0198148v3.5902592c0 .851926.264422 1.457 1.11747 1.7934074.575979.2261852 5.836823 1.254926 6.465687 1.3605556v1.0172593h-22.84949v-1.0172593c.616218-.0597037 1.355449-.1699259 2.219993-.3237778.863395-.1527037 1.679653-.3524815 2.453374-.5981852.770272-.248 1.417531-.5568518 1.941776-.9254074.521945-.3674074.786367-.7991111.786367-1.2928148v-53.754c0-.4914074-.040238-.8634074-.137959-1.107963-.171299-.4282592-.597823-.7417037-1.764728-1.3249629-.640361-.3191852-3.923789-1.8772222-4.666469-2.1860741v-.5534074l13.693598-5.3584074zm-393.8113878-22.79074075c5.5976939-.10907407 12.6554558 3.49496296 12.7163878 3.49496296 1.1232177-.50862962 3.4328843-2.09422222 4.5733469-3.01274074h1.0185987v20.37274073h-1.0185987c-.4920544-1.8737778-2.1337687-6.5742963-3.3064217-8.5766667-1.1715034-2.0023703-7.6164966-13.04525921-18.9981293-10.09222217-1.7279388.44777777-3.1776599 1.38581481-4.4388367 2.49377777-1.2657755 1.10796297-2.254483 2.48114815-2.9626735 4.11266667-.70934014 1.63151853-1.06343537 3.49611113-1.06343537 5.58918523 0 3.2653333.98640816 5.8819629 2.95347617 7.8521851 1.970517 1.9748149 4.5227619 3.5443334 7.6601837 4.712 1.2289864.496 2.3832449.9242593 3.4604762 1.2928149 1.0760816.3708518 2.1383673.7267777 3.1845578 1.0631851 1.0438912.341 2.1050272.6934815 3.1822585 1.0620371 1.0760816.3708518 2.200449.7727037 3.3696531 1.2032592 4.1836122 1.5385186 7.429102 3.7751111 9.7353197 6.6971482 2.3062177 2.9266296 3.4604762 6.5765926 3.4604762 10.9498889 0 2.9541852-.6024218 5.6075555-1.804966 7.9463333-1.2013946 2.3433704-2.7775782 4.464-4.9964218 6.005963-3.4006938 2.364037-9.73417 5.4031852-17.0414081 5.1597777-7.4348504-.248-13.76257826-3.0402962-16.07684357-4.379037-1.73828571 1.4558519-3.68810884 3.0414445-4.57104762 3.8428519h-.8335034l-.07702721-23.2431111h1.14391156c.5357415 2.6763333 1.24278232 4.6431111 2.9477279 8.2919259 2.80057142 5.9944815 9.76291154 13.3391852 16.79538094 13.4838518 4.5641497.0941482 8.5385238-.8002592 11.3758844-3.2974815 2.8362108-2.4949259 4.2560408-5.8647407 4.2560408-10.114037 0-1.7245185-.2782177-3.2366296-.8323538-4.5294444-.5552857-1.2928148-1.3094625-2.4157037-2.2659796-3.370963-.956517-.9575556-2.0808843-1.7692963-3.3777006-2.4512963-1.2956667-.6762593-2.6833062-1.2928148-4.1606191-1.8450741-1.4819115-.5557037-2.7764286-1.0172592-3.8881496-1.3881111-1.1094218-.3685555-2.142966-.7221852-3.099483-1.062037-.9553674-.3364074-1.9429252-.6774074-2.9580749-1.014963-1.0197483-.3387037-2.2360884-.7853333-3.6547687-1.341037-1.6060748-.6142593-3.14661902-1.4615926-4.62738093-2.542-1.47846258-1.0746667-2.77527891-2.3376296-3.88470068-3.7865926-1.10942176-1.4466667-2.0050068-3.0506296-2.68215646-4.805-.68059864-1.7543704-1.01744898-3.6155185-1.01744898-5.5891852 0-3.325037.60472109-6.1896667 1.82221089-8.5915926 1.21748979-2.40307406 2.85115646-4.40314813 4.90329932-6.0048148 2.05329251-1.60396296 4.42274154-2.78655556 7.10489794-3.55811111 2.6833061-.77040741 5.0136667-.97248148 7.9740408-1.03103704zm220.9025438.33870371v59.96088884c.494354.3111482 1.417531.7417037 2.775279 1.2928149 1.356599.5557037 2.620075 1.0792592 3.795028 1.5752592v.6464074l-13.692449 3.8784445h-.555286v-9.2391482h-.091973c-1.79002 3.0781852-3.903095 5.3607037-6.339224 6.8360741-2.437279 1.4788148-5.473531 2.2170741-9.112204 2.2170741-2.280926 0-4.487123-.4443334-6.612844-1.3387408-2.12802-.8909629-4.024959-2.279074-5.691966-4.1597407-1.663558-1.8760741-2.991415-4.1838519-3.977823-6.9256296-.985259-2.7440741-1.480762-5.9014815-1.480762-9.4722223 0-3.1998889.570231-6.1908148 1.711843-8.9612963 1.141613-2.7704814 2.745388-5.1896296 4.811327-7.2517037 2.065939-2.0643703 4.546905-3.6821111 7.447497-4.8532222 2.899442-1.1665185 6.105843-1.7532222 9.622653-1.7532222 1.848653 0 3.590387.155 5.227503.4604074 1.630218.3111481 3.129374.6774074 4.485973 1.1091111-.03334-1.465037-.185095-15.86051851-.185095-16.53792591l-7.586606-2.86348149v-.5557037l14.708748-4.06444444zm135.857606 22.45088884c2.463721-.0815185 4.975728.2973704 7.534871 1.1366667 2.555694.8438889 4.896401 2.1367037 7.022122 3.8853333 2.123422 1.7486297 3.893898 3.9725926 5.311429 6.6661482 1.414081 2.697 2.182054 5.8934444 2.302768 9.587037.10347 3.1367408-.386285 6.1265185-1.462367 8.9647408-1.08068 2.8451111-2.571789 5.340037-4.475626 7.4985555-1.906136 2.1562222-4.145673 3.8635185-6.728959 5.1172963-2.582136 1.2560741-5.319476 1.9334815-8.217769 2.0287778-2.405088.0769259-4.915945-.270963-7.531421-1.0482593-2.616626-.7772963-5.052756-2.0689629-7.30149-3.875-2.252184-1.8048888-4.114633-4.1482592-5.597694-7.0266666-1.483061-2.8795556-2.291272-6.2907037-2.421184-10.2277037-.091973-2.8336297.356395-5.5891852 1.350851-8.2747037.988707-2.6797778 2.424632-5.0690741 4.299727-7.1644445 1.875096-2.0942222 4.164068-3.8026666 6.866919-5.1241852 2.70285-1.3203703 5.719558-2.0356666 9.047823-2.1435926zm258.973531.0011482c2.589034 0 4.869959.2307778 6.843925.6911852 1.973966.4615555 3.854809 1.0321852 5.64253 1.7095926l-.011496 10.6617037-.70934-.0287037c-1.203694-5.0748148-5.387307-11.6204074-12.50715-11.740963-2.251034-.0378889-4.744646.8553704-6.086299 2.1711482-.750728.7336666-1.402585 1.6028148-1.898089 2.6786296-.493204 1.0804074-.739231 2.3261481-.739231 3.7418148 0 2.2813704.953068 3.9128889 2.247585 4.8968519 1.294517.9885555 2.927034 1.7245185 4.903299 2.2159259 1.355449.3111481 2.835061.6337778 4.441136.9724815 1.600327.3387037 2.989116.6613333 4.164068.9701851 2.77298.6797037 5.132082 2.0930741 7.077306 4.2481482 1.941776 2.1573704 3.051198 5.1884815 3.007511 8.3275185-.095422 7.1483704-6.263347 13.724963-17.395504 13.2921111-4.46183-.1745185-11.241374-1.992037-13.718891-3.038v-12.5572963h.857646c1.232436 5.8417778 5.382708 14.6744815 13.828109 14.4965185 7.582007-.1584444 9.269708-6.3837037 9.142095-9.5124074-.077027-1.907074-1.086428-4.3388518-2.283224-5.6029629-1.197946-1.2595185-2.841959-2.108-4.932041-2.5385556-1.658959-.31-3.254687-.6464074-4.790633-1.0172592-1.535945-.372-2.915537-.7692593-4.146823-1.2032593-2.336109-.7968148-4.225-2.1849259-5.667823-4.1551481-1.442823-1.9702223-2.16366-4.3434445-2.16366-7.1150741 0-1.9070741.398932-3.6315926 1.202545-5.1735556.799013-1.5385185 1.879693-2.8646296 3.236292-3.9725926 1.355449-1.1068148 2.928184-1.9552963 4.719354-2.5408518 1.788871-.5867037 3.700755-.8771852 5.736803-.8771852zm-575.1736808-7.1162222v8.0381852h17.1161361l-2.8684014 5.6362592h-14.0603401v24.2994074c0 3.1424815.676 5.4204074 2.0348979 6.8360741 1.3542994 1.4202593 3.1144286 2.1252222 5.2723402 2.1252222 1.7900204 0 3.268483-.2904815 4.441136-.876037 1.1692041-.5878519 2.1889524-1.4948889 3.052347-2.7268519l.554136.2778519c-.3690408.9242592-.8783401 1.8921481-1.5267483 2.9094074-.6472585 1.0172592-1.510653 1.9392222-2.589034 2.7727778-1.0795306.8312592-2.3441564 1.4776666-3.7915782 1.9392222-1.4520204.4604074-3.1615646.6923333-5.1355306.6923333-1.294517 0-2.5395987-.1986296-3.728347-.5993333-1.1910476-.3995556-2.2418367-.9851111-3.1546666-1.7578148-.91283-.766963-1.6601089-1.6292222-2.2395374-2.5856297-.5794286-.9529629-.8702926-2.3468148-.8702926-4.3078518 0-5.7901111.0298912-9.8878519.0931225-15.0935556.0597823-5.2057037.0931224-9.8396296.0931224-13.9052222h-6.753102v-1.0149629l13.3303061-12.6594815zm477.1582788 0v8.0381852h17.114987l-2.866103 5.6362592h-14.063789v24.2994074c0 3.1424815.676 5.4204074 2.034898 6.8360741 1.357749 1.4202593 3.114429 2.1252222 5.275789 2.1252222 1.785422 0 3.266184-.2904815 4.438837-.876037 1.171504-.5878519 2.187803-1.4948889 3.054646-2.7268519l.555286.2778519c-.37249.9242592-.87949 1.8921481-1.530197 2.9094074-.648408 1.0172592-1.510653 1.9392222-2.589034 2.7727778-1.08068.8312592-2.344157 1.4776666-3.791578 1.9392222-1.452021.4604074-3.162715.6923333-5.134381.6923333-1.295667 0-2.541898-.1986296-3.729497-.5993333-1.189898-.3995556-2.241837-.9851111-3.154667-1.7578148-.91283-.766963-1.662408-1.6292222-2.239537-2.5856297-.579429-.9529629-.867993-2.2985925-.867993-3.860074 0-5.7912593.031041-10.3356297.090823-15.5413334l.011276-.9693697c.054564-4.8133547.081846-9.1243594.081846-12.9358525l-.041387-7.3825926 6.618591-6.2918518zm-66.439993 7.115074c2.403939 0 4.669918.3088519 6.797939.9231112 2.12687.6165555 3.977823 1.5591851 5.550558 2.8164074 1.573884 1.2629629 2.851156 2.8531481 3.839863 4.7602222.986409 1.9093704 1.571586 4.1574444 1.756681 6.7442222h-29.695715c-.087374.7899259-.185095 3.0173333-.185095 3.697037 0 2.5856297.370191 5.0644815 1.109422 7.4354075.740381 2.3709259 1.818762 4.4662962 3.238592 6.2838148 1.41868 1.8163703 3.205252 3.2504074 5.365462 4.2986666 2.159062 1.0482593 4.656123 1.5683704 7.494633 1.5683704 3.081089 0 5.78164-.7864815 8.093606-2.356 2.313115-1.5683704 3.839863-3.4938148 4.579095-5.7728889l.740381.1837037c-.246027 1.3548148-.803613 2.8818519-1.664708 4.5719259-.864544 1.6935186-2.033748 3.2504075-3.51451 4.6660741-1.480762 1.4191111-3.254687 2.5879259-5.320626 3.5121852-2.068238.9242593-4.364109 1.3858148-6.891061 1.3858148-3.147769 0-6.013871-.5855555-8.606354-1.7555185-2.590183-1.1688148-4.794081-2.8187037-6.612843-4.9439259-1.821062-2.122926-3.223647-4.619-4.211204-7.4836297-.985259-2.8634814-1.479613-5.898037-1.479613-9.1013703 0-2.5856297.464463-5.1574815 1.38764-7.7132593.926626-2.5569259 2.236088-4.8520741 3.931837-6.882 1.696897-2.0356667 3.762836-3.6798148 6.200115-4.9427778 2.436129-1.2629629 5.134381-1.8955926 8.095905-1.8955926zm-335.888075 0c1.603776 0 3.114429.4167778 4.531959 1.2491852 1.41983.828963 2.438429 1.7451852 3.053497 3.091963s.554136 3.8761481.554136 5.4537037c0 2.2170741-.013796 4.2182963-.043687 6.0048148-.03334 1.7853704-.048286 3.5098889-.048286 5.1735556 0 1.6636666-.014945 3.3732592-.044837 5.1287777-.03334 1.7532223-.048285 3.6786667-.048285 5.7751852 0 2.7704815.479408 4.602926 1.435925 5.4950371.956517.8944074 2.049843 1.3398889 3.282279 1.3398889 1.41983 0 2.46717-.2904815 3.146619-.8771852.678299-.5855556 1.140462-1.3398889 1.387639-2.2641482h.555286c-.062082 1.1711111-.33915 2.3100741-.833503 3.4168889-.494354 1.107963-1.141613 2.1102963-1.941776 3.0035556-.803612.8955555-1.745184 1.5718148-2.821265 2.0345185-1.08183.4604074-2.26598.6923333-3.563946.6923333-2.09468 0-3.961728-.6165555-5.595394-1.8508148-1.634817-1.2262222-2.452225-3.3812963-2.452225-6.4663704l-.182796-.0918518c-.495503.8025555-1.157707 1.6981111-1.991211 2.6786296-.832353.9897037-1.818762 1.9105185-2.960374 2.7727778-1.141612.8611111-2.405088 1.5568889-3.792728 2.0815926-1.387639.5212592-2.913238.783037-4.580245.783037-.985258 0-1.986612-.1389259-3.00636-.4167778-1.016299-.2778518-1.941776-.7692592-2.775279-1.4753703-.832354-.7084074-1.510653-1.6188889-2.036048-2.7268519-.524245-1.1079629-.784068-2.4639259-.784068-4.0655926 0-1.7245185.690946-3.387037 2.078585-4.9898518 1.388789-1.6005185 3.100633-3.0506297 5.135531-4.3434445 2.036048-1.2928148 3.839864-2.4007777 5.413748-3.3227407 1.570436-.9254074 2.94313-1.7095926 4.115783-2.3571482 1.172653-.6464074 2.205047-1.2021111 3.099483-1.6636666.893285-.4615556 1.648612-.8771852 2.265979-1.2480371v-9.5158518c0-.1217037-.108068-.4144815-.324204-.8771852-.214986-.4627037-.586326-.9403333-1.109422-1.4317407-.524245-.4925556-1.24853-.9391852-2.172857-1.3410371-.926626-.3984074-2.12802-.5981852-3.609932-.5981852-.985258 0-1.95902.169926-2.912088.5051852-.958817.3421482-1.806116.7738519-2.545347 1.293963-.739231.5258518-1.327857 1.0482592-1.75668 1.5718148-.433422.5235556-.649558.9701852-.649558 1.341037v4.1551482c0 .8645555-.448368 1.6338148-1.340504 2.3100741-.895585.6774074-1.867047 1.0184074-2.914387 1.0184074-.987558 0-1.836007-.355926-2.543048-1.0620371-.71049-.7072592-1.064585-1.5247407-1.064585-2.4524444 0-.7371111.186245-1.4133704.554136-2.0299259.37249-.6165556.833503-1.1711112 1.387639-1.6636667.555286-.4914074 1.157708-.9231111 1.804966-1.2928148.647259-.372 1.21749-.7072593 1.711844-1.0184074 1.603775-.9231111 3.236292-1.8140741 4.90215-2.6763334 1.664707-.8622592 3.253537-1.6039629 4.76419-2.2216666 1.510653-.6108148 2.899442-1.1068148 4.164068-1.4753704s2.295871-.5545556 3.099483-.5545556zm462.31732 0c2.405088 0 4.669918.3088519 6.799088.9231112 2.125721.6165555 3.977823 1.5591851 5.550558 2.8164074 1.573884 1.2629629 2.848857 2.8531481 3.839864 4.7602222.985259 1.9093704 1.570435 4.1574444 1.75668 6.7442222h-29.695714c-.087374.7899259-.186245 3.0173333-.186245 3.697037 0 2.5856297.37134 5.0644815 1.109422 7.4354075.739231 2.3709259 1.819911 4.4662962 3.239741 6.2838148 1.417531 1.8163703 3.204102 3.2504074 5.365463 4.2986666 2.157912 1.0482593 4.654973 1.5683704 7.494633 1.5683704 3.078789 0 5.781639-.7864815 8.092455-2.356 2.311966-1.5683704 3.839864-3.4938148 4.580245-5.7728889l.740381.1837037c-.246027 1.3548148-.804762 2.8818519-1.665857 4.5719259-.864544 1.6935186-2.033748 3.2504075-3.51451 4.6660741-1.479612 1.4191111-3.254687 2.5879259-5.319476 3.5121852-2.068238.9242593-4.364109 1.3858148-6.891061 1.3858148-3.148919 0-6.013871-.5855555-8.607504-1.7555185-2.590184-1.1688148-4.795231-2.8187037-6.612843-4.9439259-1.822211-2.122926-3.222497-4.619-4.211205-7.4836297-.984108-2.8634814-1.479612-5.898037-1.479612-9.1013703 0-2.5856297.464463-5.1574815 1.38764-7.7132593.926626-2.5569259 2.237238-4.8520741 3.932986-6.882 1.696898-2.0356667 3.762837-3.6798148 6.198966-4.9427778 2.437279-1.2629629 5.135531-1.8955926 8.095905-1.8955926zm-26.696252 0-.000525 40.4192707c.001193.7667342.049825 1.8388622.790341 2.2218034 1.172654.6027778 4.381354.9724815 5.128633 1.0597408v.9242592h-19.886816v-.9242592c.736932-.0608519 1.478462-.1377778 2.217694-.2307778.74153-.0907037 1.403734-.2457037 1.991211-.4615556.585176-.2147037 1.078381-.5074815 1.480761-.8771852.397783-.3708518.598973-.8324074.598973-1.3892592v-31.6888889c0-1.0597407 0-1.6808889-1.14851-2.440963-.556435-.3674074-3.250088-1.5741111-4.216952-1.9931852v-.5534074l12.491054-4.0655926zm-276.185088-22.08233329c21.515884 0 26.96987 8.14840741 26.96987 17.87781479 0 14.1945556-14.991564 17.7308519-24.464761 17.7308519-1.366946 0-3.235143.1056296-6.023068.1745185v-1.2836296c1.469265-.0367408 2.902891-.093 4.25719-.1871482 2.221143-.1504074 3.698456-.3765926 5.604592-1.0723704 7.694673-2.8049259 10.314748-8.3654074 10.359585-15.4265185.054034-8.4101852-3.10868-16.42770367-17.496674-16.42770367-1.295666 0-2.153313.04477777-2.861503.14007407-.71049.0907037-1.798068.22044444-2.470619.3697037 0 .52240741-.074728 4.9622963-.074728 6.9738519 0 2.1562222-.108068 4.774-.137959 7.8544814-.02958 2.9355177-.0435 23.7417094-.044745 26.9165167l-.000092 3.941113c0 1.0471111.013796 2.0207407.044837 2.9128518.029891.8932593.048286 1.8622963.048286 2.9071111.060932 1.9748148.123013 3.6660371.183945 5.0828519.062082 1.4191111.400082 2.5856296 1.017449 3.511037.492055.7991111 1.449721 1.6016667 2.868402 2.4042222 1.41868.7991112 3.392646 1.2618149 5.920748 1.3835186v.9242592h-29.606041v-.9242592c1.541694-.2468519 3.022456-.6142593 4.443435-1.1091112 1.417531-.4914074 2.525803-1.2319629 3.330565-2.2147777.306959-.3708519.554136-.9265556.740381-1.6648148.183946-.7394075.321905-1.5706667.415027-2.4960741.093123-.921963.16785-1.9070741.232231-2.9576296.058633-1.0448149.091973-2.0597778.091973-3.0460371 0-.8622592.014946-2.0345185.044837-3.5098889.031041-1.4788148.059782-3.0977037.093122-4.852074.029892-1.7543704.047136-3.556963.047136-5.4031852l-.000189-23.637768c-.001947-1.644935-.018867-7.64704236-.046947-8.7158987-3.485768-2.50640741-4.253741-3.05981481-7.240557-5.18388889v-.92425926c3.676612 0 8.523578-.01951852 13.150959-.01951852 1.816462-.031 4.835469-.04822222 6.438095-.04822222zm-127.858272 22.08348149v9.9774074l.185095.093c.67485-1.0482593 1.521-2.1711481 2.53385-3.3744074 1.01515-1.1998148 2.167109-2.2928519 3.457027-3.277963 1.292218-.9839629 2.70515-1.8014444 4.241096-2.4478518 1.535945-.6498519 3.135122-.9701852 4.792932-.9701852 3.566244 0 6.301285 1.3226667 8.206272 3.9725926 1.904986 2.6487778 2.858054 6.0679629 2.858054 10.2529629v26.6496667c0 .7761482.196592 1.3146296.597823 1.6234815.402381.3088518.884089.5384815 1.435925.6946296.556436.1527037 1.158858.2755556 1.806116.3685556.648408.0918518 1.245082.1699259 1.801517.2296296v.8324074h-18.779694v-1.0149629c1.664708-.1251482 2.992565-.3260741 3.977823-.6016297.987558-.2755555 1.481912-.907037 1.481912-1.8944444v-23.2832963c0-3.5684445-.680599-6.4514445-2.036048-8.6363704-1.356598-2.1860741-3.640973-3.2814074-6.846224-3.2814074-2.034898 0-3.730646.4317037-5.088395 1.293963-1.356598.8645555-2.867251 2.1252222-4.531959 3.7865926v28.9321851c0 1.6280741.252925 2.3525556.855347 2.7050371 1.192197.6946296 3.561646 1.0264444 4.139925 1.0700741v.9242592h-17.855367v-.9242592c1.41868-.1205556 2.638469-.3984074 3.653619-.8324074 1.019748-.4282593 1.526748-1.1378149 1.526748-2.1263704v-31.7784445c0-.4937037-.044837-.8622592-.139109-1.1102592-.093122-.2457037-.356394-.5235556-.785217-.828963-.555286-.3111481-1.203694-.6624815-1.942926-1.0631852-.74038-.4007037-1.479612-.7566296-2.219993-1.062037v-.5568519l12.119715-4.3411481zm-74.4427759 0-.1850952 12.842037h.1850952c.3058095-.7394074.8013129-1.8163703 1.4784626-3.2331852.679449-1.4191111 1.5405442-2.8497037 2.592483-4.2952222 1.0461904-1.4489629 2.3108163-2.6981481 3.7915783-3.7441111s3.174211-1.5695185 5.087245-1.5695185c1.542843 0 2.853456.4604074 3.931837 1.3835185 1.07953.9277037 1.61987 2.0942222 1.61987 3.5144815 0 1.3513704-.402381 2.4765555-1.202544 3.3698148-.803612.8944074-1.726789 1.341037-2.775279 1.341037-.986408 0-1.775075-.1699259-2.359102-.5097777-.587476-.3375556-1.094476-.7233334-1.526748-1.1538889-.431123-.4317037-.895585-.8174815-1.38764-1.1550371-.494353-.3387037-1.171503-.5097777-2.034898-.5097777-.740381 0-1.465816.2663703-2.1728567.7876296-.7104898.5224074-1.3761429 1.1871852-1.9900613 1.9851481-.6173673.8014074-1.172653 1.7095926-1.6670068 2.7268519-.4920544 1.0172593-.9231768 1.9828518-1.294517 2.9082593v24.8091851c0 1.6280741.3471973 2.6223704 1.2048436 3.0942593 1.5704353.8645556 4.2537415 1.0138148 4.9803262 1.107963v.9231111h-19.045265v-.9231111c1.4186803-.1217037 2.6384694-.3984074 3.6547687-.8324074 1.0185986-.4282593 1.5278979-1.1378149 1.5278979-2.1263704v-31.2273334c0-.4914074-.0287415-.8668518-.1402585-1.1091111-.216136-.4627037-.7426802-.8886666-1.7957687-1.4902963-.550687-.3134444-2.2418367-1.2032592-3.153517-1.6487407v-.5534074l12.1185647-4.712zm413.6188779 0-.185096 12.842037h.185096c.306959-.7394074.800163-1.8163703 1.477313-3.2331852.680598-1.4191111 1.541693-2.8497037 2.592483-4.2952222 1.04734-1.4489629 2.311966-2.6981481 3.792727-3.7441111 1.480762-1.045963 3.175361-1.5695185 5.087245-1.5695185 1.543994 0 2.851157.4604074 3.932987 1.3835185 1.077231.9277037 1.617571 2.0942222 1.617571 3.5144815 0 1.3513704-.402381 2.4765555-1.201394 3.3698148-.803613.8944074-1.72679 1.341037-2.775279 1.341037-.986408 0-1.775075-.1699259-2.361402-.5097777-.586326-.3375556-1.092177-.7233334-1.524449-1.1538889-.431122-.4317037-.895585-.8174815-1.387639-1.1550371-.494354-.3387037-1.171503-.5097777-2.034898-.5097777-.740381 0-1.465816.2663703-2.172857.7876296-.71049.5224074-1.374993 1.1871852-1.991211 1.9851481-.617367.8014074-1.171503 1.7095926-1.667007 2.7268519-.490905 1.0172593-.922027 1.9828518-1.295667 2.9082593v24.8091851c0 1.6280741.349497 2.6223704 1.205994 3.0942593 1.570435.8645556 4.253741 1.0138148 4.981476 1.107963v.9231111h-19.044116v-.9231111c1.417531-.1217037 2.63732-.3984074 3.65247-.8324074 1.019748-.4282593 1.530197-1.1378149 1.530197-2.1263704v-31.2273334c0-.4914074-.029891-.8668518-.141408-1.1091111-.216136-.4627037-.742681-.8886666-1.795769-1.4902963-.550687-.3134444-2.241837-1.2032592-3.152367-1.6487407v-.5534074l12.118564-4.712zm-169.926626 0-.185095 12.842037h.185095c.306959-.7394074.801313-1.8163703 1.478462-3.2331852.680599-1.4191111 1.540545-2.8497037 2.592483-4.2952222 1.047341-1.4489629 2.310817-2.6981481 3.791579-3.7441111s3.17536-1.5695185 5.087244-1.5695185c1.543994 0 2.853456.4604074 3.932987 1.3835185 1.078381.9277037 1.618721 2.0942222 1.618721 3.5144815 0 1.3513704-.402381 2.4765555-1.202544 3.3698148-.802463.8944074-1.726789 1.341037-2.775279 1.341037-.986408 0-1.775075-.1699259-2.359102-.5097777-.587476-.3375556-1.094476-.7233334-1.525599-1.1538889-.432272-.4317037-.895585-.8174815-1.388789-1.1550371-.493204-.3387037-1.170354-.5097777-2.033748-.5097777-.741531 0-1.466966.2663703-2.174007.7876296-.71049.5224074-1.374993 1.1871852-1.990061 1.9851481-.617368.8014074-1.172653 1.7095926-1.667007 2.7268519-.490905 1.0172593-.923177 1.9828518-1.294517 2.9082593v24.8091851c0 1.6280741.347197 2.6223704 1.204843 3.0942593 1.570436.8645556 4.253742 1.0138148 4.980327 1.107963v.9231111h-19.044116v-.9231111c1.417531-.1217037 2.63732-.3984074 3.654769-.8324074 1.017449-.4282593 1.527898-1.1378149 1.527898-2.1263704v-31.2273334c0-.4914074-.029891-.8668518-.140258-1.1091111-.217286-.4627037-.74383-.8886666-1.796919-1.4902963-.549537-.3134444-2.240687-1.2032592-3.152367-1.6487407v-.5534074l12.118564-4.712zm40.340274 1.4887662-.395342.0072708c-2.034898.0677408-3.835266.7428519-5.396504 2.0253334-1.564687 1.2836296-2.881047 2.9461481-3.955979 4.9818148-1.076082 2.0391111-1.864749 4.3135926-2.3683 6.8268889-.5047 2.5098518-.711639 5.0598889-.627714 7.6455185.093123 2.8336296.426524 5.5030741 1.003653 8.0106296.57483 2.511 1.450871 4.7131482 2.623524 6.6144815 1.173803 1.9036296 2.643068 3.3973704 4.405497 4.4800741 1.761279 1.0827037 3.845612 1.5844444 6.2507 1.5063703 2.402789-.078074 4.398599-.8691481 5.98398-2.3697777 1.585381-1.4983334 2.853456-3.3583334 3.798476-5.5788519.945021-2.2170741 1.607225-4.5971852 1.986612-7.1368889.381687-2.5397037.534592-4.8842222.464463-7.0404444-.06898-2.0907778-.37364-4.3308148-.917429-6.7166667-.53919-2.387-1.365796-4.5776667-2.482115-6.5765926-1.11517-1.9954815-2.556844-3.6281481-4.32617-4.8968518-1.769327-1.2641111-3.919191-1.8565556-6.442694-1.7750371zm47.575365 4.5160486c-1.598027 0-3.027054.2927778-4.285932.8771852-1.260027.5867037-2.337258 1.262963-3.227095 2.0322222-.888687.7692593-1.566986 1.5568889-2.02685 2.356-.461014.8025556-.688647 1.3858148-.688647 1.7566667 0 1.2342592-.019544 2.542-.048285 3.9255185-.031041 1.3858148-.044837 2.604-.044837 3.6488148v5.9141111c0 1.4191111.028741 2.8324815.093122 4.2515926.121864 1.2928148.335701 2.6315556.64381 4.0173704.306959 1.3858148.828905 2.6487778 1.566986 3.7865926.736932 1.1424074 1.749783 2.0655185 3.039701 2.7716296 1.289918.7095556 2.951177 1.0631852 4.978027 1.0631852 1.780823 0 3.499565-.4914074 5.158524-1.4788148 1.660109-.9816667 3.133973-2.3387778 4.423891-4.0644445 1.291068-1.7245185 2.321163-3.7877407 3.089136-6.1908148.766823-2.4007778 1.151959-5.0174074 1.151959-7.8521852 0-2.3387777-.277068-4.526-.828904-6.5593703-.555286-2.0345186-1.401436-3.8038148-2.5373-5.3136297-1.133564-1.5086666-2.579836-2.7084814-4.329619-3.6028889-1.750932-.8932592-3.795027-1.3387407-6.127687-1.3387407zm-202.010183-4.2515926c-2.405089 0-4.456082.558-6.15298 1.665963-1.696898 1.1068148-3.099483 2.5856296-4.208905 4.433-1.109422 1.8473703-1.92683 3.9714444-2.451075 6.3733703-.525394 2.4030741-.786367 4.867-.786367 7.3940741 0 2.5247778.306959 4.9737778.924327 7.3435556.617367 2.3732222 1.540544 4.464 2.775278 6.2838148 1.234735 1.8152222 2.760334 3.2791111 4.580245 4.3882222 1.818762 1.1056667 3.931837 1.6636667 6.336926 1.6636667 2.529251 0 4.702108-.8622593 6.52202-2.5867778 1.818762-1.7245185 2.976469-3.9094444 3.470823-6.5616667v-21.9893333c-1.357748-2.5236296-3.086837-4.557-5.182667-6.0955185-2.098129-1.5396667-4.039904-2.3123704-5.827625-2.3123704zm-86.178504 17.8582963c-1.156558.6027778-7.446347 4.2883333-9.019081 5.3331482-1.575034 1.0482592-2.929334 2.2032963-4.070946 3.4662592-1.142762 1.2641111-1.711844 2.6935556-1.711844 4.2952222 0 1.6016667.554136 3.0494815 1.667007 4.3422963 1.109422 1.2928149 2.556844 1.9380741 4.345715 1.9380741 1.603775 0 3.021306-.1848518 4.25604-.5522592 1.232436-.3697038 2.375198-1.076963 3.423687-2.1263704.740381-.6762593 1.109422-1.5385185 1.109422-2.5867778zm335.423612-18.0431481c-1.726789 0-3.283428.5086296-4.671068 1.5235926-1.387639 1.0184074-2.589034 2.2055925-3.607632 3.5592592-1.0163 1.355963-1.804966 2.7268519-2.359102 4.1103704-.554136 1.3881111-.893286 2.4478518-1.017449 3.1872592 1.41868 0 14.642068-.0815185 16.931041-.2755555 2.287823-.1928889 3.317918-1.031037 3.423687-3.7888889.086224-2.2767778-.788667-4.2355185-2.360252-5.8647407-1.573884-1.6338149-3.68581-2.4512963-6.339225-2.4512963zm126.430395 0c-1.726789 0-3.284578.5086296-4.672218 1.5235926-1.387639 1.0184074-2.590183 2.2055925-3.607632 3.5592592-1.0163 1.355963-1.806116 2.7268519-2.359102 4.1103704-.555286 1.3881111-.892136 2.4478518-1.0163 3.1872592 1.418681 0 14.640919-.0815185 16.929891-.2755555 2.287824-.1928889 3.317919-1.031037 3.422538-3.7888889.086224-2.2767778-.787517-4.2355185-2.359102-5.8647407-1.575034-1.6338149-3.686959-2.4512963-6.338075-2.4512963zm65.453585-20.58400004c5.821878 0 10.560776 4.73037037 10.560776 10.54459264 0 5.8153703-4.738898 10.5468888-10.560776 10.5468888s-10.560776-4.7315185-10.560776-10.5468888c0-5.81422227 4.738898-10.54459264 10.560776-10.54459264zm0 2.0172963c-4.707857 0-8.537374 3.82562964-8.537374 8.52729634 0 4.7016666 3.829517 8.5261481 8.537374 8.5261481 4.709007 0 8.538524-3.8244815 8.538524-8.5261481 0-4.7016667-3.829517-8.52729634-8.538524-8.52729634zm-.749578 2.976c.697843 0 1.308313.031 1.827959.08725926.525395.05855555 1.003653.18944444 1.439374.39151852 1.01515.46499996 1.525599 1.29166666 1.525599 2.47885186 0 .6980741-.256374 1.2687037-.763374 1.7187778-.5093.450074-1.099075.7462963-1.763579.8921111v.0424815c.318456.2904814.636912.6245926.955368 1.0023333.292013.3467407.589775.7325185.894435 1.1515926.30466.4213704.495503.6980741.801313 1.1676667.469061.7175925 1.202544 1.2962592 1.991211 1.3352962 0 .1400741-.006898.2801482-.006898.434h-3.071891c-.129912-.2112592-.684048-1.0298888-.828905-1.2629629-.347197-.5212593-.646109-.9713333-.889837-1.3479259-.248326-.3754445-.60587-.8266667-1.070333-1.3490741-.173599-.2009259-.375939-.3903704-.60932-.5648889-.231081-.1733704-.450666-.2893333-.651857-.3478889-.174748-.0562593-.50585-.0424815-.650707-.0424815v2.5224815c0 .3191852-.052885 1.0471111.185095 1.3743333.300061.4110371.887537.5821112 1.296816.5821112v.4362962h-4.875707v-.4362962c.233381 0 .880639-.053963 1.260027-.4351482.274002-.2755556.302105-1.0478446.303861-1.4823337l-.000351-5.7636293c0-.3191851-.012646-.6521481-.041388-1.000037-.029891-.349037-.118415-.5947407-.262122-.7394074-.263272-.23307408-.680599-.39151852-1.262327-.47877778v-.34903704c.112667 0 4.006565-.01722222 4.267538-.01722222zm-95.747123-5.47207407c1.687701 0 3.099483.54881481 4.238796 1.64644444 1.137014 1.10107407 1.707245 2.49377778 1.707245 4.17925926 0 1.68777781-.570231 3.09885181-1.707245 4.23207411-1.139313 1.1378148-2.551095 1.7061481-4.238796 1.7061481-1.616421 0-3.010959-.5844074-4.185911-1.7612592-1.172653-1.1711112-1.75783-2.5638149-1.75783-4.17696301 0-1.68548148.566782-3.07818519 1.703796-4.17925926 1.139313-1.09762963 2.552245-1.64644444 4.239945-1.64644444zm97.186497 6.21262961c-.770272-.2721111-1.937177-.1745185-2.223442-.1745185-.027592.0872593-.051735.2112593-.065531.3708518-.014945.1595926-.021843.3984075-.021843.7164445v3.6534074c.408129 0 .761074-.0057407 1.066884-.0218148.30466-.0137778.616218-.0642963.934673-.1515556.64266-.2319259 1.074932-.5442222 1.308313-.9345926.234531-.3915185.347198-.8335555.347198-1.3272592 0-.9862593-.57713-1.86-1.346252-2.130963z" fill="#fff"></path></svg> 